<svg id="Camada_1" data-name="Camada 1" xmlns="http://www.w3.org/2000/svg" viewBox="0 0 841.89 834.55"><defs><style>.cls-1{fill:#f36d22;}</style></defs><title>Prancheta 1</title><path class="cls-1" d="M436.8,803.46h-43c-2.11-.33-4.21-.77-6.33-1-14.24-1.3-28.73-1.29-42.67-4a379.2,379.2,0,0,1-142.44-60.15Q110,675,64.68,572.68c-15.12-34.29-25.36-70-29-107.42-.57-5.94-1.28-11.86-1.92-17.8v-36c.74-9.27,1.21-18.57,2.27-27.8,2-17.17,3-34.59,6.7-51.4,9.58-43.51,27.45-83.75,52-120.89q63.29-95.82,168.17-143C299.27,52.09,337.08,40.84,377,37.46c6.61-.56,13.21-1.33,19.81-2h31c7.6.71,15.23,1.15,22.79,2.19,19.41,2.67,39.18,4,58.11,8.71,79.77,19.75,146.79,61.3,200.37,123.35,54,62.49,83.06,135.92,90.66,218,.58,6.26,1.37,12.5,2.07,18.75v29c-.37,1.93-.83,3.86-1.08,5.81-2.48,19.29-3.67,38.85-7.6,57.84-12.5,60.35-37.92,114.92-77,162.73-48.22,59-108.7,100.58-180.86,125-23.71,8-47.88,14-73.13,14.68C453.67,801.76,445.24,802.8,436.8,803.46ZM374.66,568.31c0,3.12,0,5.09,0,7.06,0,46.5,0,93-.12,139.49,0,4.79,1.39,6.24,6.22,6.18,23.33-.29,46.66-.31,70-.21,4,0,5.51-1.13,5.45-5.33-.13-10,.27-20,.35-30q.39-52,.7-104c0-4.35,0-8.7,0-13.73,2.44.85,3.39,1.1,4.28,1.5,20.65,9.12,42,15.89,64.44,18.87,30.18,4,59.48.89,87.63-11,35.85-15.09,62.86-40.28,82.29-73.65,17.93-30.8,26.15-64,22-99.67-4.16-35.43-17.07-67.33-40.2-94.7-30.3-35.86-69.1-55.83-115.79-59.71-26-2.16-51.53,1.61-76.17,10.4-9.2,3.28-18.22,7.05-28,10.88,0-2.3,0-4.08,0-5.87,0-47-.06-94,.1-141,0-4.81-1.38-6.32-6.2-6.27q-34.25.35-68.5.07c-4.79,0-6.25,1.45-6.28,6.24-.12,21.83-.63,43.65-1,65.48q-.58,38.49-1.12,77c0,1.39-.29,2.77-.51,4.72-25.32-12.43-51.17-20.69-78.82-22.44a159.67,159.67,0,0,0-79.57,15.18c-25.19,11.91-46,29.27-63.1,51.11-48.92,62.42-45.35,141.85-6.52,199.59a166.5,166.5,0,0,0,86.13,66C280.95,597.23,328,591.36,374.66,568.31Z"/><path class="cls-1" d="M637.69,419.5c.28,37.5-21.51,70.59-57.07,85.07-23.36,9.51-46,6.31-68.26-3.45-28.44-12.49-47.75-33.12-53.78-64.24-9.46-48.85,22.76-99.4,74.63-107.24,37.22-5.63,67.57,6.8,89.67,37.45C633.6,382,637.94,399.19,637.69,419.5Z"/><path class="cls-1" d="M288.22,510.7c-55.7-1.87-93-41.15-91.26-96.05,1.57-48.77,42.27-86.86,92.79-83.59,52.67,3.41,90.09,39.6,87.57,92C374.91,473.24,336.86,510.74,288.22,510.7Z"/></svg>